<svg xmlns="http://www.w3.org/2000/svg" width="50" height="50" viewBox="0 0 50 50" fill="none"><g id="fi_11065036" clip-path="url(#clip0_5_195)"><g id="Group"><path id="Vector" d="M19.2529 42.8242C19.4731 42.9435 19.7126 43.001 19.9496 43.001C20.3792 43.001 20.8011 42.812 21.0874 42.4595L36.8785 23.009C37.2345 22.5704 37.3067 21.9663 37.0637 21.4562C36.8208 20.9462 36.3064 20.6213 35.7415 20.6213H27.687L31.4091 8.90716C31.6223 8.23592 31.3276 7.50794 30.7074 7.17412C30.0874 6.84021 29.3174 6.99516 28.8745 7.5427L13.1198 27.0231C12.7649 27.462 12.6937 28.0657 12.9368 28.5751C13.1799 29.0844 13.6941 29.4087 14.2585 29.4087H22.3065L18.5559 41.0887C18.3405 41.7594 18.6333 42.4887 19.2529 42.8242ZM17.3265 26.4795L26.2633 15.4293L24.2892 21.6424C24.1478 22.0876 24.2272 22.5736 24.503 22.9506C24.7788 23.3276 25.2179 23.5505 25.6849 23.5505H32.666L23.7293 34.5581L25.7094 28.3919C25.8524 27.9464 25.774 27.4594 25.4983 27.0812C25.2225 26.7032 24.7828 26.4796 24.3149 26.4796H17.3265V26.4795Z" fill="#FDBA12"></path><path id="Vector_2" d="M49.7424 37.0578C49.6121 36.5297 49.1998 36.1174 48.6717 35.987C45.7041 35.254 42.6432 36.1062 40.4837 38.2658C38.5292 40.2203 37.646 42.913 38.0389 45.6065C37.0427 46.4288 35.6109 46.9657 35.0656 47.1209C34.2884 47.3403 33.8353 48.1476 34.0532 48.9255C34.2344 49.5723 34.8224 49.9953 35.4627 49.9953C35.5934 49.9953 35.7265 49.9777 35.8586 49.9407C36.1429 49.861 38.4206 49.1888 40.1101 47.6883C40.5341 47.7508 40.9582 47.7822 41.3795 47.7822C43.6377 47.7822 45.8139 46.8955 47.4635 45.2457C49.6232 43.0861 50.4751 40.0252 49.7424 37.0578ZM45.3925 43.1745C44.1872 44.3796 42.5569 44.9686 40.8976 44.8318C40.7605 43.1722 41.3496 41.5421 42.5549 40.3369C43.7602 39.1316 45.3903 38.542 47.0497 38.6797C47.1868 40.3391 46.5977 41.9693 45.3925 43.1745Z" fill="#FDBA12"></path><path id="Vector_3" d="M1.32822 14.0131C2.02876 14.1861 2.73427 14.2708 3.43218 14.2708C5.6904 14.2708 7.86651 13.3841 9.51617 11.7343C11.4706 9.77982 12.3539 7.08712 11.961 4.39363C12.9572 3.57134 14.389 3.03444 14.9343 2.8792C15.7115 2.65981 16.1646 1.85256 15.9467 1.07459C15.7285 0.295752 14.9202 -0.158841 14.1413 0.059473C13.857 0.139144 11.5798 0.81127 9.89031 2.31135C7.19234 1.91378 4.49397 2.7967 2.53637 4.7543C0.376657 6.91391 -0.475315 9.9748 0.257346 12.9423C0.38769 13.4705 0.800007 13.8828 1.32822 14.0131ZM4.60742 6.82545C5.81264 5.62033 7.44258 5.0311 9.10219 5.16828C9.23927 6.8278 8.65014 8.45793 7.44492 9.66315C6.2396 10.8684 4.60937 11.4577 2.95005 11.3203C2.81307 9.6609 3.4022 8.03077 4.60742 6.82545Z" fill="#FDBA12"></path><path id="Vector_4" d="M20.663 3.3609C22.0792 3.07785 23.5384 2.93433 25 2.93433C30.894 2.93433 36.4351 5.22956 40.6028 9.39725C44.7705 13.5649 47.0657 19.1061 47.0657 25.0001C47.0657 27.0354 46.7895 29.0486 46.2447 30.9837C46.0255 31.7623 46.479 32.5712 47.2576 32.7903C47.3903 32.8276 47.5239 32.8454 47.6553 32.8454C48.2948 32.8454 48.8825 32.4232 49.0643 31.7774C49.6817 29.5839 49.9948 27.3037 49.9948 25C49.9948 18.3236 47.3949 12.0469 42.674 7.326C37.9531 2.6051 31.6764 0.00524902 25 0.00524902C23.3461 0.00524902 21.6938 0.167911 20.0889 0.488645C19.2957 0.647206 18.7813 1.41863 18.9398 2.21182C19.0984 3.00502 19.8698 3.51927 20.663 3.3609Z" fill="#FDBA12"></path><path id="Vector_5" d="M29.336 46.6392C27.9198 46.9223 26.4609 47.0658 25 47.0658C19.106 47.0658 13.5648 44.7706 9.39713 40.6029C5.22944 36.4352 2.93421 30.894 2.93421 25.0001C2.93421 22.9682 3.21052 20.9545 3.75542 19.0147C3.97423 18.2359 3.52022 17.4274 2.74157 17.2086C1.96263 16.9896 1.1543 17.4438 0.935501 18.2225C0.318148 20.42 0.00512695 22.7004 0.00512695 25.0001C0.00512695 31.6764 2.60508 37.9531 7.32597 42.674C12.0469 47.3949 18.3236 49.9949 25 49.9949C26.6532 49.9949 28.3052 49.8322 29.9101 49.5115C30.7033 49.3529 31.2177 48.5815 31.0591 47.7883C30.9006 46.9951 30.1289 46.4808 29.336 46.6392Z" fill="#FDBA12"></path></g></g><defs><clipPath id="clip0_5_195"><rect width="50" height="50" fill="white"></rect></clipPath></defs></svg>