<svg xmlns="http://www.w3.org/2000/svg" width="51" height="50" viewBox="0 0 51 50" fill="none"><g id="fi_5854864" clip-path="url(#clip0_5_106)"><g id="Group"><path id="Vector" d="M48.8684 0H1.7981C0.989111 0 0.333252 0.655859 0.333252 1.46484V36.8164C0.333252 37.6254 0.989111 38.2812 1.7981 38.2812H3.26294V40.0765C3.26294 43.9329 6.40034 47.0703 10.2569 47.0703H14.6887V48.5352C14.6887 49.3441 15.3446 50 16.1536 50H30.2161C31.025 50 31.6809 49.3441 31.6809 48.5352V47.0703H36.759C37.568 47.0703 38.2239 46.4145 38.2239 45.6055C38.2239 44.7965 37.568 44.1406 36.759 44.1406H31.6809V42.6758C31.6809 41.8668 31.025 41.2109 30.2161 41.2109H16.1536C15.3446 41.2109 14.6887 41.8668 14.6887 42.6758V44.1406H10.2569C8.01577 44.1406 6.19263 42.3175 6.19263 40.0765V38.2812H48.8684C49.6774 38.2812 50.3333 37.6254 50.3333 36.8164V1.46484C50.3333 0.655859 49.6774 0 48.8684 0ZM17.6184 44.1406H28.7512V47.0703H17.6184V44.1406ZM3.26294 8.78906H47.4036V29.4922H3.26294V8.78906ZM47.4036 2.92969V5.85938H3.26294V2.92969H47.4036ZM3.26294 35.3516V32.4219H47.4036V35.3516H3.26294Z" fill="#FDBA12"></path><path id="Vector_2" d="M7.75513 26.4648C8.56414 26.4648 9.21997 25.809 9.21997 25C9.21997 24.191 8.56414 23.5352 7.75513 23.5352C6.94612 23.5352 6.29028 24.191 6.29028 25C6.29028 25.809 6.94612 26.4648 7.75513 26.4648Z" fill="#FDBA12"></path><path id="Vector_3" d="M7.75513 20.6055C8.56414 20.6055 9.21997 19.9496 9.21997 19.1406C9.21997 18.3316 8.56414 17.6758 7.75513 17.6758C6.94612 17.6758 6.29028 18.3316 6.29028 19.1406C6.29028 19.9496 6.94612 20.6055 7.75513 20.6055Z" fill="#FDBA12"></path><path id="Vector_4" d="M7.75513 14.7461C8.56414 14.7461 9.21997 14.0903 9.21997 13.2812C9.21997 12.4722 8.56414 11.8164 7.75513 11.8164C6.94612 11.8164 6.29028 12.4722 6.29028 13.2812C6.29028 14.0903 6.94612 14.7461 7.75513 14.7461Z" fill="#FDBA12"></path><path id="Vector_5" d="M13.6145 26.4648C14.4235 26.4648 15.0793 25.809 15.0793 25C15.0793 24.191 14.4235 23.5352 13.6145 23.5352C12.8055 23.5352 12.1497 24.191 12.1497 25C12.1497 25.809 12.8055 26.4648 13.6145 26.4648Z" fill="#FDBA12"></path><path id="Vector_6" d="M13.6145 20.6055C14.4235 20.6055 15.0793 19.9496 15.0793 19.1406C15.0793 18.3316 14.4235 17.6758 13.6145 17.6758C12.8055 17.6758 12.1497 18.3316 12.1497 19.1406C12.1497 19.9496 12.8055 20.6055 13.6145 20.6055Z" fill="#FDBA12"></path><path id="Vector_7" d="M13.6145 14.7461C14.4235 14.7461 15.0793 14.0903 15.0793 13.2812C15.0793 12.4722 14.4235 11.8164 13.6145 11.8164C12.8055 11.8164 12.1497 12.4722 12.1497 13.2812C12.1497 14.0903 12.8055 14.7461 13.6145 14.7461Z" fill="#FDBA12"></path><path id="Vector_8" d="M19.4739 26.4648C20.2829 26.4648 20.9387 25.809 20.9387 25C20.9387 24.191 20.2829 23.5352 19.4739 23.5352C18.6649 23.5352 18.009 24.191 18.009 25C18.009 25.809 18.6649 26.4648 19.4739 26.4648Z" fill="#FDBA12"></path><path id="Vector_9" d="M19.4739 20.6055C20.2829 20.6055 20.9387 19.9496 20.9387 19.1406C20.9387 18.3316 20.2829 17.6758 19.4739 17.6758C18.6649 17.6758 18.009 18.3316 18.009 19.1406C18.009 19.9496 18.6649 20.6055 19.4739 20.6055Z" fill="#FDBA12"></path><path id="Vector_10" d="M19.4739 14.7461C20.2829 14.7461 20.9387 14.0903 20.9387 13.2812C20.9387 12.4722 20.2829 11.8164 19.4739 11.8164C18.6649 11.8164 18.009 12.4722 18.009 13.2812C18.009 14.0903 18.6649 14.7461 19.4739 14.7461Z" fill="#FDBA12"></path><path id="Vector_11" d="M25.3333 26.4648C26.1423 26.4648 26.7981 25.809 26.7981 25C26.7981 24.191 26.1423 23.5352 25.3333 23.5352C24.5242 23.5352 23.8684 24.191 23.8684 25C23.8684 25.809 24.5242 26.4648 25.3333 26.4648Z" fill="#FDBA12"></path><path id="Vector_12" d="M25.3333 20.6055C26.1423 20.6055 26.7981 19.9496 26.7981 19.1406C26.7981 18.3316 26.1423 17.6758 25.3333 17.6758C24.5242 17.6758 23.8684 18.3316 23.8684 19.1406C23.8684 19.9496 24.5242 20.6055 25.3333 20.6055Z" fill="#FDBA12"></path><path id="Vector_13" d="M25.3333 14.7461C26.1423 14.7461 26.7981 14.0903 26.7981 13.2812C26.7981 12.4722 26.1423 11.8164 25.3333 11.8164C24.5242 11.8164 23.8684 12.4722 23.8684 13.2812C23.8684 14.0903 24.5242 14.7461 25.3333 14.7461Z" fill="#FDBA12"></path><path id="Vector_14" d="M31.1926 26.4648C32.0016 26.4648 32.6575 25.809 32.6575 25C32.6575 24.191 32.0016 23.5352 31.1926 23.5352C30.3836 23.5352 29.7278 24.191 29.7278 25C29.7278 25.809 30.3836 26.4648 31.1926 26.4648Z" fill="#FDBA12"></path><path id="Vector_15" d="M31.1926 20.6055C32.0016 20.6055 32.6575 19.9496 32.6575 19.1406C32.6575 18.3316 32.0016 17.6758 31.1926 17.6758C30.3836 17.6758 29.7278 18.3316 29.7278 19.1406C29.7278 19.9496 30.3836 20.6055 31.1926 20.6055Z" fill="#FDBA12"></path><path id="Vector_16" d="M31.1926 14.7461C32.0016 14.7461 32.6575 14.0903 32.6575 13.2812C32.6575 12.4722 32.0016 11.8164 31.1926 11.8164C30.3836 11.8164 29.7278 12.4722 29.7278 13.2812C29.7278 14.0903 30.3836 14.7461 31.1926 14.7461Z" fill="#FDBA12"></path><path id="Vector_17" d="M37.052 26.4648C37.861 26.4648 38.5168 25.809 38.5168 25C38.5168 24.191 37.861 23.5352 37.052 23.5352C36.243 23.5352 35.5872 24.191 35.5872 25C35.5872 25.809 36.243 26.4648 37.052 26.4648Z" fill="#FDBA12"></path><path id="Vector_18" d="M37.052 20.6055C37.861 20.6055 38.5168 19.9496 38.5168 19.1406C38.5168 18.3316 37.861 17.6758 37.052 17.6758C36.243 17.6758 35.5872 18.3316 35.5872 19.1406C35.5872 19.9496 36.243 20.6055 37.052 20.6055Z" fill="#FDBA12"></path><path id="Vector_19" d="M37.052 14.7461C37.861 14.7461 38.5168 14.0903 38.5168 13.2812C38.5168 12.4722 37.861 11.8164 37.052 11.8164C36.243 11.8164 35.5872 12.4722 35.5872 13.2812C35.5872 14.0903 36.243 14.7461 37.052 14.7461Z" fill="#FDBA12"></path><path id="Vector_20" d="M42.9114 26.4648C43.7204 26.4648 44.3762 25.809 44.3762 25C44.3762 24.191 43.7204 23.5352 42.9114 23.5352C42.1024 23.5352 41.4465 24.191 41.4465 25C41.4465 25.809 42.1024 26.4648 42.9114 26.4648Z" fill="#FDBA12"></path><path id="Vector_21" d="M42.9114 20.6055C43.7204 20.6055 44.3762 19.9496 44.3762 19.1406C44.3762 18.3316 43.7204 17.6758 42.9114 17.6758C42.1024 17.6758 41.4465 18.3316 41.4465 19.1406C41.4465 19.9496 42.1024 20.6055 42.9114 20.6055Z" fill="#FDBA12"></path><path id="Vector_22" d="M42.9114 14.7461C43.7204 14.7461 44.3762 14.0903 44.3762 13.2812C44.3762 12.4722 43.7204 11.8164 42.9114 11.8164C42.1024 11.8164 41.4465 12.4722 41.4465 13.2812C41.4465 14.0903 42.1024 14.7461 42.9114 14.7461Z" fill="#FDBA12"></path></g></g><defs><clipPath id="clip0_5_106"><rect width="50" height="50" fill="white" transform="translate(0.333252)"></rect></clipPath></defs></svg>