<svg xmlns="http://www.w3.org/2000/svg" width="50" height="50" viewBox="0 0 50 50" fill="none"><g id="fi_7406619"><path id="Vector" d="M24.9995 1.47925C-3.08745 2.63225 -7.84851 37.0501 12.4459 48.3226C13.1489 48.7298 14.0504 48.4893 14.4569 47.7852L19.1834 39.5988C19.5893 38.8958 19.3489 37.997 18.6464 37.5904C7.49423 31.0529 12.058 13.9561 24.9997 13.8743C33.1215 13.7633 39.3914 21.7916 37.3309 29.6367C34.7153 26.636 31.187 22.9978 28.098 21.2148C25.1401 19.5081 21.3415 20.5252 19.6282 23.4852C17.922 26.4493 18.9412 30.2474 21.8985 31.955C24.987 33.7377 29.901 34.9732 33.8074 35.7373C33.0751 36.4445 32.2532 37.069 31.3525 37.5903C30.6499 37.9969 30.4096 38.8957 30.8155 39.5987L35.5421 47.7851C35.9486 48.4893 36.85 48.7297 37.553 48.3225C57.8797 37.0182 53.0435 2.61735 24.9995 1.47925ZM15.9358 39.3402L12.6702 44.9962C11.733 44.3667 3.56933 38.9904 2.88457 28.0539H9.41946C9.84956 32.5669 12.2383 36.7054 15.9358 39.3402ZM9.41858 25.112H2.88771C3.35213 18.0604 7.12836 11.8993 12.6729 8.17447L15.9377 13.8295C12.3287 16.4011 9.85387 20.4647 9.41858 25.112ZM18.4834 12.355L15.2187 6.70002C21.0426 3.68866 28.9566 3.68866 34.7804 6.70002L31.5158 12.355C27.5962 10.4741 22.4028 10.4741 18.4834 12.355ZM34.0613 13.8295L37.3261 8.17447C42.8707 11.8993 46.6469 18.0604 47.1113 25.112H40.5804C40.1452 20.4647 37.6702 16.4011 34.0613 13.8295ZM22.1778 24.9528C22.9846 23.5591 24.9349 22.7862 26.6276 23.7629C29.9405 25.675 34.0257 30.2248 36.5279 33.2401C32.6654 32.5814 26.6821 31.3195 23.3691 29.4072C21.8151 28.5098 21.2805 26.5115 22.1778 24.9528ZM37.3287 44.9961L34.0631 39.3401C35.2624 38.4855 36.3228 37.4717 37.2247 36.3392C38.7048 36.5722 39.6952 36.6923 39.8323 36.7086C40.4166 36.778 40.986 36.4927 41.28 35.9829C41.5743 35.4734 41.5366 34.8376 41.1842 34.3664C41.1015 34.2559 40.5027 33.4589 39.5612 32.2946C40.0922 30.9461 40.4396 29.52 40.5794 28.0538H47.1143C46.4295 38.9903 38.2659 44.3667 37.3287 44.9961Z" fill="#FDBA12"></path></g></svg>