<svg xmlns="http://www.w3.org/2000/svg" width="125" height="123" viewBox="0 0 125 123" fill="none"><path id="Star 2" d="M100 -75L107.942 -12.3619L140.674 -66.3545L122.451 -5.9017L174.314 -41.9131L133.079 5.9017L195.106 -5.9017L137.987 21.0074L199.452 35.4529L136.327 36.8034L186.603 75L128.386 50.5585L158.779 105.902L115.536 59.8943L120.791 122.815L100 63.1966L79.2088 122.815L84.464 59.8943L41.2215 105.902L71.6144 50.5585L13.3975 75L63.6729 36.8034L0.547813 35.4529L62.0126 21.0074L4.89435 -5.9017L66.9208 5.9017L25.6855 -41.9131L77.5486 -5.9017L59.3263 -66.3545L92.0585 -12.3619L100 -75Z" fill="white" fill-opacity="0.05"></path></svg>