<svg xmlns="http://www.w3.org/2000/svg" width="125" height="125" viewBox="0 0 125 125" fill="none"><path id="Star 3" d="M25 0L32.9415 62.6381L65.6737 8.64545L47.4514 69.0983L99.3145 33.0869L58.0792 80.9017L120.106 69.0983L62.9874 96.0074L124.452 110.453L61.3271 111.803L111.603 150L53.3856 125.559L83.7785 180.902L40.536 134.894L45.7912 197.815L25 138.197L4.20883 197.815L9.46404 134.894L-33.7785 180.902L-3.3856 125.559L-61.6025 150L-11.3271 111.803L-74.4522 110.453L-12.9874 96.0074L-70.1057 69.0983L-8.07922 80.9017L-49.3145 33.0869L2.5486 69.0983L-15.6737 8.64545L17.0585 62.6381L25 0Z" fill="white" fill-opacity="0.05"></path></svg>